{
	"patcher" : 	{
		"fileversion" : 1,
		"appversion" : 		{
			"major" : 9,
			"minor" : 0,
			"revision" : 7,
			"architecture" : "x64",
			"modernui" : 1
		}
,
		"classnamespace" : "box",
		"rect" : [ 786.0, 148.0, 451.0, 779.0 ],
		"gridsize" : [ 15.0, 15.0 ],
		"boxes" : [ 			{
				"box" : 				{
					"id" : "obj-1",
					"maxclass" : "comment",
					"numinlets" : 1,
					"numoutlets" : 0,
					"patching_rect" : [ 279.0, 163.0, 233.0, 20.0 ],
					"text" : "Buffer looper with crossfade",
					"textcolor" : [ 0.850980392156863, 0.850980392156863, 0.850980392156863, 1.0 ]
				}

			}
, 			{
				"box" : 				{
					"id" : "obj-2",
					"maxclass" : "message",
					"numinlets" : 2,
					"numoutlets" : 1,
					"outlettype" : [ "" ],
					"patching_rect" : [ 282.0, 142.0, 102.0, 22.0 ],
					"text" : "sonus.crossloop~"
				}

			}
, 			{
				"box" : 				{
					"id" : "obj-6",
					"maxclass" : "live.line",
					"numinlets" : 1,
					"numoutlets" : 0,
					"patching_rect" : [ 16.0, 113.0, 805.0, 5.0 ]
				}

			}
, 			{
				"box" : 				{
					"comment" : "",
					"hidden" : 1,
					"id" : "obj-3",
					"index" : 0,
					"maxclass" : "outlet",
					"numinlets" : 1,
					"numoutlets" : 0,
					"patching_rect" : [ 26.0, 706.0, 30.0, 30.0 ]
				}

			}
, 			{
				"box" : 				{
					"id" : "obj-89",
					"maxclass" : "comment",
					"numinlets" : 1,
					"numoutlets" : 0,
					"patching_rect" : [ 23.0, 343.0, 233.0, 20.0 ],
					"text" : "Save snapshots of a buffer",
					"textcolor" : [ 0.850980392156863, 0.850980392156863, 0.850980392156863, 1.0 ]
				}

			}
, 			{
				"box" : 				{
					"id" : "obj-90",
					"maxclass" : "message",
					"numinlets" : 2,
					"numoutlets" : 1,
					"outlettype" : [ "" ],
					"patching_rect" : [ 26.0, 322.0, 87.0, 22.0 ],
					"text" : "sonus.bufsnap"
				}

			}
, 			{
				"box" : 				{
					"id" : "obj-76",
					"maxclass" : "comment",
					"numinlets" : 1,
					"numoutlets" : 0,
					"patching_rect" : [ 23.0, 253.0, 233.0, 20.0 ],
					"text" : "Parallel biquad filters",
					"textcolor" : [ 0.850980392156863, 0.850980392156863, 0.850980392156863, 1.0 ]
				}

			}
, 			{
				"box" : 				{
					"id" : "obj-77",
					"maxclass" : "message",
					"numinlets" : 2,
					"numoutlets" : 1,
					"outlettype" : [ "" ],
					"patching_rect" : [ 26.0, 232.0, 93.0, 22.0 ],
					"text" : "sonus.biquads~"
				}

			}
, 			{
				"box" : 				{
					"id" : "obj-74",
					"maxclass" : "comment",
					"numinlets" : 1,
					"numoutlets" : 0,
					"patching_rect" : [ 279.0, 208.0, 233.0, 20.0 ],
					"text" : "Eerie stereo reverberator",
					"textcolor" : [ 0.850980392156863, 0.850980392156863, 0.850980392156863, 1.0 ]
				}

			}
, 			{
				"box" : 				{
					"id" : "obj-75",
					"maxclass" : "message",
					"numinlets" : 2,
					"numoutlets" : 1,
					"outlettype" : [ "" ],
					"patching_rect" : [ 282.0, 187.0, 107.0, 22.0 ],
					"text" : "sonus.cryptoverb~"
				}

			}
, 			{
				"box" : 				{
					"id" : "obj-72",
					"maxclass" : "comment",
					"numinlets" : 1,
					"numoutlets" : 0,
					"patching_rect" : [ 279.0, 343.0, 233.0, 20.0 ],
					"text" : "Simple signal mixer",
					"textcolor" : [ 0.850980392156863, 0.850980392156863, 0.850980392156863, 1.0 ]
				}

			}
, 			{
				"box" : 				{
					"id" : "obj-73",
					"maxclass" : "message",
					"numinlets" : 2,
					"numoutlets" : 1,
					"outlettype" : [ "" ],
					"patching_rect" : [ 282.0, 322.0, 94.0, 22.0 ],
					"text" : "sonus.summer~"
				}

			}
, 			{
				"box" : 				{
					"id" : "obj-70",
					"maxclass" : "comment",
					"numinlets" : 1,
					"numoutlets" : 0,
					"patching_rect" : [ 23.0, 298.0, 233.0, 20.0 ],
					"text" : "Apply effects to buffers",
					"textcolor" : [ 0.850980392156863, 0.850980392156863, 0.850980392156863, 1.0 ]
				}

			}
, 			{
				"box" : 				{
					"id" : "obj-71",
					"maxclass" : "message",
					"numinlets" : 2,
					"numoutlets" : 1,
					"outlettype" : [ "" ],
					"patching_rect" : [ 26.0, 277.0, 70.0, 22.0 ],
					"text" : "sonus.buffx"
				}

			}
, 			{
				"box" : 				{
					"id" : "obj-65",
					"maxclass" : "comment",
					"numinlets" : 1,
					"numoutlets" : 0,
					"patching_rect" : [ 23.0, 388.0, 233.0, 20.0 ],
					"text" : "Chebyshev waveshaper",
					"textcolor" : [ 0.850980392156863, 0.850980392156863, 0.850980392156863, 1.0 ]
				}

			}
, 			{
				"box" : 				{
					"id" : "obj-66",
					"maxclass" : "message",
					"numinlets" : 2,
					"numoutlets" : 1,
					"outlettype" : [ "" ],
					"patching_rect" : [ 26.0, 367.0, 83.0, 22.0 ],
					"text" : "sonus.cheby~"
				}

			}
, 			{
				"box" : 				{
					"id" : "obj-51",
					"maxclass" : "comment",
					"numinlets" : 1,
					"numoutlets" : 0,
					"patching_rect" : [ 23.0, 208.0, 233.0, 20.0 ],
					"text" : "Bit manipulator",
					"textcolor" : [ 0.850980392156863, 0.850980392156863, 0.850980392156863, 1.0 ]
				}

			}
, 			{
				"box" : 				{
					"id" : "obj-52",
					"maxclass" : "message",
					"numinlets" : 2,
					"numoutlets" : 1,
					"outlettype" : [ "" ],
					"patching_rect" : [ 26.0, 187.0, 87.0, 22.0 ],
					"text" : "sonus.bitman~"
				}

			}
, 			{
				"box" : 				{
					"id" : "obj-49",
					"maxclass" : "comment",
					"numinlets" : 1,
					"numoutlets" : 0,
					"patching_rect" : [ 23.0, 163.0, 233.0, 20.0 ],
					"text" : "Bitcrusher and bit inverter",
					"textcolor" : [ 0.850980392156863, 0.850980392156863, 0.850980392156863, 1.0 ]
				}

			}
, 			{
				"box" : 				{
					"id" : "obj-50",
					"maxclass" : "message",
					"numinlets" : 2,
					"numoutlets" : 1,
					"outlettype" : [ "" ],
					"patching_rect" : [ 26.0, 142.0, 79.0, 22.0 ],
					"text" : "sonus.bitinv~"
				}

			}
, 			{
				"box" : 				{
					"id" : "obj-32",
					"maxclass" : "comment",
					"numinlets" : 1,
					"numoutlets" : 0,
					"patching_rect" : [ 279.0, 298.0, 233.0, 20.0 ],
					"text" : "Quadraphonic panner",
					"textcolor" : [ 0.850980392156863, 0.850980392156863, 0.850980392156863, 1.0 ]
				}

			}
, 			{
				"box" : 				{
					"id" : "obj-29",
					"maxclass" : "comment",
					"numinlets" : 1,
					"numoutlets" : 0,
					"patching_rect" : [ 279.0, 253.0, 233.0, 20.0 ],
					"text" : "Continuous selector/mixer",
					"textcolor" : [ 0.850980392156863, 0.850980392156863, 0.850980392156863, 1.0 ]
				}

			}
, 			{
				"box" : 				{
					"id" : "obj-25",
					"maxclass" : "comment",
					"numinlets" : 1,
					"numoutlets" : 0,
					"patching_rect" : [ 279.0, 388.0, 233.0, 20.0 ],
					"text" : "Wavesets based sample manipulation",
					"textcolor" : [ 0.850980392156863, 0.850980392156863, 0.850980392156863, 1.0 ]
				}

			}
, 			{
				"box" : 				{
					"id" : "obj-20",
					"maxclass" : "message",
					"numinlets" : 2,
					"numoutlets" : 1,
					"outlettype" : [ "" ],
					"patching_rect" : [ 282.0, 277.0, 98.0, 22.0 ],
					"text" : "sonus.quadpan~"
				}

			}
, 			{
				"box" : 				{
					"id" : "obj-19",
					"maxclass" : "message",
					"numinlets" : 2,
					"numoutlets" : 1,
					"outlettype" : [ "" ],
					"patching_rect" : [ 282.0, 232.0, 96.0, 22.0 ],
					"text" : "sonus.fselector~"
				}

			}
, 			{
				"box" : 				{
					"id" : "obj-16",
					"maxclass" : "message",
					"numinlets" : 2,
					"numoutlets" : 1,
					"outlettype" : [ "" ],
					"patching_rect" : [ 282.0, 367.0, 94.0, 22.0 ],
					"text" : "sonus.wavesets"
				}

			}
, 			{
				"box" : 				{
					"background" : 1,
					"fontface" : 0,
					"fontname" : "Arial",
					"fontsize" : 16.0,
					"id" : "obj-5",
					"linecount" : 4,
					"maxclass" : "comment",
					"numinlets" : 1,
					"numoutlets" : 0,
					"patching_rect" : [ 16.0, 23.0, 807.0, 80.0 ],
					"text" : "A series of externals that add effects to the incoming signal or to a buffer, depending on the object. Some effects are rather common (like the biquad filters of sonus.biquad~) but packed in a handy and easy to use object, other are more exotic like bitwise manipulation or eerie reverberation. Moreover, sonus.buffx and sonus.waveset allow to modify buffers in particular ways, so they are also suited for non-realtime sound design.",
					"textcolor" : [ 0.956862745098039, 0.764705882352941, 0.450980392156863, 1.0 ]
				}

			}
 ],
		"lines" : [ 			{
				"patchline" : 				{
					"destination" : [ "obj-3", 0 ],
					"hidden" : 1,
					"source" : [ "obj-16", 0 ]
				}

			}
, 			{
				"patchline" : 				{
					"destination" : [ "obj-3", 0 ],
					"hidden" : 1,
					"source" : [ "obj-19", 0 ]
				}

			}
, 			{
				"patchline" : 				{
					"destination" : [ "obj-3", 0 ],
					"hidden" : 1,
					"source" : [ "obj-2", 0 ]
				}

			}
, 			{
				"patchline" : 				{
					"destination" : [ "obj-3", 0 ],
					"hidden" : 1,
					"source" : [ "obj-20", 0 ]
				}

			}
, 			{
				"patchline" : 				{
					"destination" : [ "obj-3", 0 ],
					"hidden" : 1,
					"source" : [ "obj-50", 0 ]
				}

			}
, 			{
				"patchline" : 				{
					"destination" : [ "obj-3", 0 ],
					"hidden" : 1,
					"source" : [ "obj-52", 0 ]
				}

			}
, 			{
				"patchline" : 				{
					"destination" : [ "obj-3", 0 ],
					"hidden" : 1,
					"source" : [ "obj-66", 0 ]
				}

			}
, 			{
				"patchline" : 				{
					"destination" : [ "obj-3", 0 ],
					"hidden" : 1,
					"source" : [ "obj-71", 0 ]
				}

			}
, 			{
				"patchline" : 				{
					"destination" : [ "obj-3", 0 ],
					"hidden" : 1,
					"source" : [ "obj-73", 0 ]
				}

			}
, 			{
				"patchline" : 				{
					"destination" : [ "obj-3", 0 ],
					"hidden" : 1,
					"source" : [ "obj-75", 0 ]
				}

			}
, 			{
				"patchline" : 				{
					"destination" : [ "obj-3", 0 ],
					"hidden" : 1,
					"source" : [ "obj-77", 0 ]
				}

			}
, 			{
				"patchline" : 				{
					"destination" : [ "obj-3", 0 ],
					"hidden" : 1,
					"source" : [ "obj-90", 0 ]
				}

			}
 ],
		"dependency_cache" : [  ],
		"autosave" : 0
	}

}
