{
    "patcher": {
        "fileversion": 1,
        "appversion": {
            "major": 9,
            "minor": 1,
            "revision": 1,
            "architecture": "x64",
            "modernui": 1
        },
        "classnamespace": "box",
        "rect": [ 99.0, 100.0, 847.0, 702.0 ],
        "boxes": [
            {
                "box": {
                    "bubble": 1,
                    "fontname": "Arial",
                    "fontsize": 13.0,
                    "id": "obj-12",
                    "linecount": 5,
                    "maxclass": "comment",
                    "numinlets": 1,
                    "numoutlets": 0,
                    "patching_rect": [ 406.0, 384.0, 314.0, 85.0 ],
                    "text": "if set to a number different from 0, only the last n symbols are kept, so that the sequence does not grow indefinitely. While this technically breaks the definition of a L-system, it can be useful for generative sequencing."
                }
            },
            {
                "box": {
                    "attr": "last",
                    "id": "obj-8",
                    "maxclass": "attrui",
                    "numinlets": 1,
                    "numoutlets": 1,
                    "outlettype": [ "" ],
                    "parameter_enable": 0,
                    "patching_rect": [ 245.0, 415.5, 150.0, 22.0 ]
                }
            },
            {
                "box": {
                    "bubble": 1,
                    "fontname": "Arial",
                    "fontsize": 13.0,
                    "id": "obj-7",
                    "linecount": 2,
                    "maxclass": "comment",
                    "numinlets": 1,
                    "numoutlets": 0,
                    "patching_rect": [ 406.0, 328.0, 314.0, 40.0 ],
                    "text": "probability that a transition from one symbol to another happens"
                }
            },
            {
                "box": {
                    "attr": "probability",
                    "id": "obj-4",
                    "maxclass": "attrui",
                    "numinlets": 1,
                    "numoutlets": 1,
                    "outlettype": [ "" ],
                    "parameter_enable": 0,
                    "patching_rect": [ 245.0, 337.0, 150.0, 22.0 ]
                }
            },
            {
                "box": {
                    "id": "obj-37",
                    "maxclass": "newobj",
                    "numinlets": 1,
                    "numoutlets": 0,
                    "patching_rect": [ 33.0, 500.0, 84.0, 22.0 ],
                    "text": "print L-system"
                }
            },
            {
                "box": {
                    "bubble": 1,
                    "fontname": "Arial",
                    "fontsize": 13.0,
                    "id": "obj-34",
                    "maxclass": "comment",
                    "numinlets": 1,
                    "numoutlets": 0,
                    "patching_rect": [ 426.0, 529.0, 131.0, 25.0 ],
                    "text": "current sequence"
                }
            },
            {
                "box": {
                    "bubble": 1,
                    "fontname": "Arial",
                    "fontsize": 13.0,
                    "id": "obj-33",
                    "linecount": 9,
                    "maxclass": "comment",
                    "numinlets": 1,
                    "numoutlets": 0,
                    "patching_rect": [ 253.0, 137.5, 467.0, 145.0 ],
                    "text": "create and send the dictionary, which must have two entries: \"axiom\" with the initial configuration, and \"rules\", with the evolution rules written as sequence of INPUT OUTPUT pairs (e.g. A->AB and B->A are simply written as A AB B A) - constant values (i.e. which do not evolve) are accepted, just do not specify a rule for their evolution (if they are contained within a rule) or create a rule where the symbol is kept the same (i.e. K K); to specify more than one possibile output for the same symbol, write the possibile outputs without spaces, separated only by a |, all possible outputs have the same probability to be selected"
                }
            },
            {
                "box": {
                    "id": "obj-32",
                    "maxclass": "message",
                    "numinlets": 2,
                    "numoutlets": 1,
                    "outlettype": [ "" ],
                    "patching_rect": [ 33.0, 530.0, 374.0, 22.0 ]
                }
            },
            {
                "box": {
                    "id": "obj-29",
                    "maxclass": "newobj",
                    "numinlets": 1,
                    "numoutlets": 3,
                    "outlettype": [ "bang", "bang", "bang" ],
                    "patching_rect": [ 209.0, 251.0, 42.0, 22.0 ],
                    "text": "t b b b"
                }
            },
            {
                "box": {
                    "id": "obj-27",
                    "maxclass": "button",
                    "numinlets": 1,
                    "numoutlets": 1,
                    "outlettype": [ "bang" ],
                    "parameter_enable": 0,
                    "patching_rect": [ 209.0, 198.0, 24.0, 24.0 ]
                }
            },
            {
                "box": {
                    "id": "obj-25",
                    "maxclass": "message",
                    "numinlets": 2,
                    "numoutlets": 1,
                    "outlettype": [ "" ],
                    "patching_rect": [ 133.0, 337.0, 71.0, 22.0 ],
                    "text": "set axiom A"
                }
            },
            {
                "box": {
                    "id": "obj-17",
                    "maxclass": "message",
                    "numinlets": 2,
                    "numoutlets": 1,
                    "outlettype": [ "" ],
                    "patching_rect": [ 220.5, 298.0, 115.0, 22.0 ],
                    "text": "set rules A AB|A B A"
                }
            },
            {
                "box": {
                    "id": "obj-11",
                    "maxclass": "newobj",
                    "numinlets": 2,
                    "numoutlets": 5,
                    "outlettype": [ "dictionary", "", "", "", "" ],
                    "patching_rect": [ 99.0, 374.0, 50.5, 22.0 ],
                    "saved_object_attributes": {
                        "legacy": 1,
                        "parameter_enable": 0,
                        "parameter_mappable": 0
                    },
                    "text": "dict"
                }
            },
            {
                "box": {
                    "id": "obj-6",
                    "maxclass": "live.line",
                    "numinlets": 1,
                    "numoutlets": 0,
                    "patching_rect": [ 16.0, 646.0, 805.0, 5.0 ]
                }
            },
            {
                "box": {
                    "bgcolor": [ 0.301961, 0.301961, 0.301961, 0.0 ],
                    "bgcolor2": [ 0.301961, 0.301961, 0.301961, 0.0 ],
                    "bgfillcolor_angle": 270.0,
                    "bgfillcolor_autogradient": 0.0,
                    "bgfillcolor_color": [ 0.2, 0.2, 0.2, 0.0 ],
                    "bgfillcolor_color1": [ 0.301961, 0.301961, 0.301961, 0.0 ],
                    "bgfillcolor_color2": [ 0.2, 0.2, 0.2, 1.0 ],
                    "bgfillcolor_proportion": 0.5,
                    "bgfillcolor_type": "color",
                    "fontface": 1,
                    "gradient": 1,
                    "id": "obj-40",
                    "maxclass": "message",
                    "numinlets": 2,
                    "numoutlets": 1,
                    "outlettype": [ "" ],
                    "patching_rect": [ 300.0, 669.0, 237.0, 22.0 ],
                    "text": "https://github.com/valeriorlandini/sonus",
                    "textcolor": [ 0.0, 0.015686274509804, 0.396078431372549, 1.0 ]
                }
            },
            {
                "box": {
                    "hidden": 1,
                    "id": "obj-36",
                    "linecount": 2,
                    "maxclass": "message",
                    "numinlets": 2,
                    "numoutlets": 1,
                    "outlettype": [ "" ],
                    "patching_rect": [ 10.0, 683.0, 129.0, 36.0 ],
                    "text": ";\r\nmax launchbrowser $1"
                }
            },
            {
                "box": {
                    "bubble": 1,
                    "fontname": "Arial",
                    "fontsize": 13.0,
                    "id": "obj-10",
                    "maxclass": "comment",
                    "numinlets": 1,
                    "numoutlets": 0,
                    "patching_rect": [ 63.0, 156.5, 131.0, 25.0 ],
                    "text": "evolve the system"
                }
            },
            {
                "box": {
                    "id": "obj-9",
                    "maxclass": "button",
                    "numinlets": 1,
                    "numoutlets": 1,
                    "outlettype": [ "bang" ],
                    "parameter_enable": 0,
                    "patching_rect": [ 33.0, 157.0, 24.0, 24.0 ]
                }
            },
            {
                "box": {
                    "id": "obj-2",
                    "maxclass": "newobj",
                    "numinlets": 1,
                    "numoutlets": 1,
                    "outlettype": [ "" ],
                    "patching_rect": [ 33.0, 420.0, 76.0, 22.0 ],
                    "text": "sonus.linden"
                }
            },
            {
                "box": {
                    "id": "obj-5",
                    "maxclass": "live.line",
                    "numinlets": 1,
                    "numoutlets": 0,
                    "patching_rect": [ 16.0, 55.0, 805.0, 5.0 ]
                }
            },
            {
                "box": {
                    "background": 1,
                    "fontface": 0,
                    "fontname": "Arial",
                    "fontsize": 16.0,
                    "id": "obj-1",
                    "maxclass": "comment",
                    "numinlets": 1,
                    "numoutlets": 0,
                    "patching_rect": [ 16.0, 80.0, 805.0, 25.0 ],
                    "text": "An implementation of a deterministic or (basic) stochastic Lindenmayer system, with custom rules and axioms.",
                    "textcolor": [ 0.956862745098039, 0.764705882352941, 0.450980392156863, 1.0 ]
                }
            },
            {
                "box": {
                    "background": 1,
                    "fontface": 0,
                    "fontname": "Arial",
                    "fontsize": 20.0,
                    "id": "obj-3",
                    "maxclass": "comment",
                    "numinlets": 1,
                    "numoutlets": 0,
                    "patching_rect": [ 16.0, 55.0, 805.0, 29.0 ],
                    "text": "lindenmayer generative system"
                }
            },
            {
                "box": {
                    "background": 1,
                    "fontface": 2,
                    "fontname": "Arial",
                    "fontsize": 12.0,
                    "id": "obj-24",
                    "maxclass": "comment",
                    "numinlets": 1,
                    "numoutlets": 0,
                    "patching_rect": [ 16.0, 653.0, 805.0, 20.0 ],
                    "text": "handmade in italy by valerio orlandini",
                    "textjustification": 1
                }
            },
            {
                "box": {
                    "background": 1,
                    "fontface": 1,
                    "fontname": "Arial",
                    "fontsize": 36.0,
                    "id": "obj-21",
                    "maxclass": "comment",
                    "numinlets": 1,
                    "numoutlets": 0,
                    "patching_rect": [ 16.0, 12.0, 805.0, 48.0 ],
                    "text": "sonus.linden"
                }
            }
        ],
        "lines": [
            {
                "patchline": {
                    "destination": [ "obj-2", 0 ],
                    "source": [ "obj-11", 0 ]
                }
            },
            {
                "patchline": {
                    "destination": [ "obj-11", 0 ],
                    "source": [ "obj-17", 0 ]
                }
            },
            {
                "patchline": {
                    "destination": [ "obj-32", 1 ],
                    "order": 0,
                    "source": [ "obj-2", 0 ]
                }
            },
            {
                "patchline": {
                    "destination": [ "obj-37", 0 ],
                    "order": 1,
                    "source": [ "obj-2", 0 ]
                }
            },
            {
                "patchline": {
                    "destination": [ "obj-11", 0 ],
                    "source": [ "obj-25", 0 ]
                }
            },
            {
                "patchline": {
                    "destination": [ "obj-29", 0 ],
                    "source": [ "obj-27", 0 ]
                }
            },
            {
                "patchline": {
                    "destination": [ "obj-11", 0 ],
                    "source": [ "obj-29", 0 ]
                }
            },
            {
                "patchline": {
                    "destination": [ "obj-17", 0 ],
                    "source": [ "obj-29", 1 ]
                }
            },
            {
                "patchline": {
                    "destination": [ "obj-25", 0 ],
                    "source": [ "obj-29", 2 ]
                }
            },
            {
                "patchline": {
                    "destination": [ "obj-2", 0 ],
                    "source": [ "obj-4", 0 ]
                }
            },
            {
                "patchline": {
                    "destination": [ "obj-36", 0 ],
                    "hidden": 1,
                    "source": [ "obj-40", 0 ]
                }
            },
            {
                "patchline": {
                    "destination": [ "obj-2", 0 ],
                    "source": [ "obj-8", 0 ]
                }
            },
            {
                "patchline": {
                    "destination": [ "obj-2", 0 ],
                    "source": [ "obj-9", 0 ]
                }
            }
        ],
        "autosave": 0
    }
}